/* XPM */
static char *_f8061f6c6c04d76de3760785736d642XdmjdcpCEvkbaLq9[] = {
/* columns rows colors chars-per-pixel */
"80 80 123 2 ",
"   c #000E12",
".  c #012C38",
"X  c #363E3A",
"o  c #3D3A3B",
"O  c #421B05",
"+  c #532001",
"@  c #42343A",
"#  c #45363A",
"$  c #41383B",
"%  c #7A5A02",
"&  c #7B4A22",
"*  c #353C45",
"=  c #3A3A42",
"-  c #413C48",
";  c #2E4245",
":  c #2C404A",
">  c #244053",
",  c #244859",
"<  c #26525D",
"1  c #304362",
"2  c gray40",
"3  c #940000",
"4  c #990030",
"5  c #9E0F3D",
"6  c #D50000",
"7  c #94304F",
"8  c #9C6B4D",
"9  c #B37145",
"0  c #A27653",
"q  c #BF7F54",
"w  c #BD8C04",
"e  c #EBAC00",
"r  c #FFC20E",
"t  c #B58E7F",
"y  c #C48557",
"u  c #E08D4E",
"i  c #C7916B",
"p  c #C49B6E",
"a  c #DD9A66",
"s  c #D39669",
"d  c #D3996A",
"f  c #D39C6E",
"g  c #DE9F6B",
"h  c #DA9D6F",
"j  c #D69E75",
"k  c #E79F6C",
"l  c #EA9F70",
"z  c #F19F7A",
"x  c #D6A670",
"c  c #DEA372",
"v  c #DDA770",
"b  c #DCA477",
"n  c #D6AA77",
"m  c #D9A17E",
"M  c #D8A77C",
"N  c #DCA77D",
"B  c #EAA361",
"V  c #E2A06B",
"C  c #E5A26A",
"Z  c #E3A56D",
"A  c #E5A46F",
"S  c #E9A369",
"D  c #E8A26A",
"F  c #E1A571",
"G  c #E5A672",
"H  c #E0A375",
"J  c #E2A674",
"K  c #E6A474",
"L  c #ECA575",
"P  c #E2A579",
"I  c #E6A97B",
"U  c #E4AB7E",
"Y  c #E8AB78",
"T  c #F2AE77",
"R  c #E4B27F",
"E  c #2F3699",
"W  c #39409E",
"Q  c #347798",
"!  c #596F9E",
"~  c #068BB3",
"^  c #53869B",
"/  c #7B99A4",
"(  c #7BAFBE",
")  c #76ABC3",
"_  c #7DBAD6",
"`  c #7ABED5",
"'  c #57C7E6",
"]  c #7CC5E0",
"[  c #BDB190",
"{  c #BAAEA0",
"}  c #BEADA4",
"|  c #A8B9B0",
" . c #AAB8B0",
".. c #A0B3BA",
"X. c #ADBCB8",
"o. c #C9AB87",
"O. c #D6A681",
"+. c #DDA686",
"@. c #DAA883",
"#. c #DEAB87",
"$. c #DBB480",
"%. c #C9AC97",
"&. c #C1B191",
"*. c #E7AE83",
"=. c #ECAF81",
"-. c #FFBC8D",
";. c #E3B593",
":. c #C2AEA8",
">. c #C3B5A3",
",. c #EFC689",
"<. c #FFC893",
"1. c #EFCDAA",
"2. c #8DB9C6",
"3. c #9FBAC1",
"4. c #96B8CC",
"5. c #8DBFD1",
"6. c #92BED3",
"7. c #9DBBD3",
"8. c #8FC0CE",
"9. c #85C5D0",
"0. c #8FC3D2",
"q. c #93C6DB",
"w. c #A3C1C2",
/* pixels */
"                                                                                                                                                                ",
"  . . . . . . . . . . . . . . . . . . . . . . . . . . . . . . . . . . . . . . . . . . . . . . . . . . . . . . . . . . . . . . . . . . . . . . . . . . . . . .   ",
"  . ~ ~ ~ ~ ~ ~ ~ ~ ~ ~ ~ ~ ~ ~ ~ ~ ~ ~ ~ ~ ~ ~ ~ ~ ~ ~ ~ ~ ~ ~ ~ ~ ~ ~ ~ ~ ~ ~ ~ ~ ~ ~ ~ ~ ~ ~ ~ ~ ~ ~ ~ ~ ~ ~ ~ ~ ~ ~ ~ ~ ~ ~ ~ ~ ~ ~ ~ ~ ~ ~ ~ ~ ~ ~ ~ ~ .   ",
"  . ~ ' ' ' ' ' ' ' ' ' ' ' ' ' ' ' ' ' ' ' ' ' ' ' ' ' ' ' ' ' ' ' ' ' ' ' ' ' ' ' ' ' ' ' ' ' ' ' ' ' ' ' ' ' ' ' ' ' ' ' ' ' ' ' ' ' ' ' ' ' ' ' ' ' ' ~ .   ",
"  . ~ ' ' ' ' ' ' ' ' ' ' ' ' ' ' ' ' ' ' ' ' ' ' ' ' ' ' ' ' ' ' ' ' ' ' ' ' ' ' ' ' ' ' ' ' ' ' ' ' ' ' ' ' ' ' ' ' ' ' ' ' ' ' ' ' ' ' ' ' ' ' ' ' ' ' ~ .   ",
"  . ~ ' ' ' ' ' ' ' ' ' ' ' ' ' ' ' ' ' ' ' ' ' ' ' ' ' ' ' ' ' ' ' ' ' ' ' ' ' ' ' ' ' ' ' ' ' ' ' ' ' ' ' ' ' ' ' ' ' ' ' ' ' ' ' ' ' ' ' ' ' ' ' ' ' ' ~ .   ",
"  . ~ ' ' ' ' ' ' ' ' ' ' ' ' ' ' ' ' ' ' ' ' ' ' ' ' ' ' ' ' ' ' ' ' ' ' ' ' ' ' ' ' ' ' ' ' ' ' ' ' ' ' ' ' ' ' ' ' ' ' ' ' ' ' ' ' ' ' ' ' ' ' ' ' ' ' ~ .   ",
"  . ~ ' ' ' ' ' ' ' ' ' ' ' ' ' ' ' ' ' ' ' ' ' ' ' ' ' ' ' ' ' ' ' ' ' ' ' ' ' ' ' ' ' ' ' ' ' ' ' ' ' ' ' ' ' ' ' ' ' ' ' ' ' ' ' ' ' ' ' ' ' ' ' ' ' ' ~ .   ",
"  . ~ ' ' ' ' ' ' ' ' ' ' ' ' ' ' ' ' ' ' ' ' ' ' ' ' ' ' ' ' ' ' ' ' ' ' ' ' ' ' ' ' ' ' ' ' ' ' ' ' ' ' ' ' ' ' ' ' ' ' ' ' ' ' ' ' ' ' ' ' ' ' ' ' ' ' ~ .   ",
"  . ~ ' ' ' ' ' ' ' ' ' ' ' ' ' ' ' ' ' ' ' ' ' ' ' ' ' ' ' ' ' ' ' ' ' ' ' ' ' ' ' ' ' ' ' ' ' ' ' ' ' ' ' ' ' ' ' ' ' ' ' ' ' ' ' ' ' ' ' ' ' ' ' ' ' ' ~ .   ",
"  . ~ ' ' ' ' ' ' ' ' ' ' ' ' ' ' ' ' ' ' ' ' ' ' ' ' ' ' ' ' ' ' ' ' ' ' ' ' ' ' ' ' ' ' ' ' ' ' ' ' ' ' ' ' ' ' ' ' ' ' ' ' ' ' ' ' ' ' ' ' ' ' ' ' ' ' ~ .   ",
"  . ~ ' ' ' ' ' ' ' ' ' ' ' ' ' ' ' ' ' ' ' ' ' ' ' ' ' ' ' ' ' ' ' ' ' ' ' ' ' ' ' ' ' ' ' ' ' ' ' ' ' ' ' ' ' ' ' ' ' ' ' ' ' ' ' ' ' ' ' ' ' ' ' ' ' ' ~ .   ",
"  . ~ ' ' ' ' ' ' ' ' ' ' ' ' ' ' ' ' ' ' ' ' ' ' ' e r r r r r r w ' ' ' ' ' ' ' ' ' ' ' ' ' ' ' ' ' ' ' ' ' ' ' ' ' ' ' ' ' ' ' ' ' ' ' ' ' ' ' ' ' ' ' ~ .   ",
"  . ~ ' ' ' ' ' ' ' ' ' ' ' ' ' ' ' ' ' ' ' ' ' e e w r r r r r r r r w ' ' ' ' ' ' ' ' ' ' ' ' ' ' ' ' ' ' ' ' ' ' ' ' ' ' ' ' ' ' ' ' ' ' ' ' ' ' ' ' ' ~ .   ",
"  . ~ ' ' ' ' ' ' ' ' ' ' ' ' ' ' ' ' ' ' ' ' ' e w r r w w r r w w r w e ' ' ' ' ' ' ' ' ' ' ' 6 6 6 6 3 3 3 6 6 ' ' ' ' ' ' ' ' ' ' ' ' ' ' ' ' ' ' ' ' ~ .   ",
"  . ~ ' ' ' ' ' ' ' ' ' ' ' ' ' ' ' ' ' ' ' ' w r r r w w r r w r r r w e ' ' ' ' ' ' ' ' ' 6 6 6 6 6 6 3 3 3 6 6 ' ' ' ' ' ' ' ' ' ' ' 6 ' ' ' ' ' ' ' ' ~ .   ",
"  . ~ ' ' ' ' ' ' ' ' ' ' ' ' ' ' ' ' ' ' ' w w r r w w r r r r 8 e e e w ' ' ' ' ' ' ' ' 6 6 6 6 6 6 6 6 6 3 3 3 6 6 ' ' ' ' ' ' ' ' ' 6 ' ' ' ' ' ' ' ' ~ .   ",
"  . ~ ' ' ' ' ' ' ' ' ' ' ' ' ' ' ' ' ' ' ' w w r r r r e e @.P f v I i w ' ' ' ' ' ' ' ' 6 6 6 6 6 6 6 6 6 3 3 3 6 6 6 ' ' ' ' ' ' 6 6 6 ' ' ' ' ' ' ' ' ~ .   ",
"  . ~ ' ' ' ' ' ' ' ' ' ' ' ' ' ' ' ' ' ' ' ' w R R % % % V T a % % v j w ' ' ' ' ' ' ' ' 6 6 6 6 6 6 6 6 6 3 3 3 6 6 6 6 6 6 6 6 6 6 6 6 ' ' ' ' ' ' ' ' ~ .   ",
"  . ~ ' ' ' ' ' ' ' ' ' ' ' ' ' ' ' ' ' ' ' 7.w N n p ;.d F A D #.@.*.P w ] ' ' ' ' ' ' ' 6 6 6 6 6 6 6 6 6 3 3 3 6 6 6 6 6 6 6 6 6 6 6 6 ' ' ' ' ' ' ' ' ~ .   ",
"  . ~ ' ' ' ' ' ' ' ' ' ' ' ' ' ' ' ' ' ' 3.F F C R h O & v Z G + 0 k K R o.0.' ' ' ' ' ' 6 6 6 6 6 6 6 6 6 3 3 3 6 6 6 6 6 6 6 6 6 6 6 6 ' ' ' ' ' ' ' ' ~ .   ",
"  . ~ ' ' ' ' ' ' ' ' ' ' ' ' ' ' ' ' ' ' &.z F v h =.H h A D D U L k x F D  .' ' ' ' ' ' 6 6 6 6 6 6 6 6 6 3 3 3 6 6 6 6 6 6 6 6 6 6 6 6 ' ' ' ' ' ' ' ' ~ .   ",
"  . ~ ' ' ' ' ' ' ' ' ' ' ' ' ' ' ' ' ' ' 5.%.R Y G a g J v F h h k L v F } 6.' ' ' ' ' ' 6 6 6 6 6 6 6 6 6 3 3 3 6 6 6 6 6 6 6 6 6 6 6 6 ' ' ' ' ' ' ' ' ~ .   ",
"  . ~ ' ' ' ' ' ' ' ' ' ' ' ' ' ' ' ' ' ' ' 2.F *.j b F h D F F h v j h F 9.' ' ' ' ' ' ' 6 6 6 6 6 6 6 6 6 3 3 3 6 6 6 6 6 6 6 6 6 6 6 6 ' ' ' ' ' ' ' ' ~ .   ",
"  . ~ ' ' ' ' ' ' ' ' ' ' ' ' ' ' ' ' ' ' ' ' R F F F D q 9 9 9 y A R F D ' ' ' ' ' ' ' ' 6 6 6 6 6 6 6 6 6 3 3 3 6 6 6 6 6 6 6 6 6 6 6 3 ' ' ' ' ' ' ' ' ~ .   ",
"  . ~ ' ' ' ' ' ' ' ' ' ' ' ' ' ' ' ' ' ' ' ' ' F R D h h D F h F C F F h ' ' ' ' ' ' ' ' 6 6 6 6 6 6 6 6 6 6 3 3 6 6 6 6 6 6 6 6 6 6 6 3 ' ' ' ' ' ' ' ' ~ .   ",
"  . ~ ' ' ' ' ' ' ' ' ' ' ' ' ' ' ' ' ' ' ' ' ' ' q.R F F D u D C h F q.' ' ' ' ' ' ' ' ' 6 6 6 6 6 6 6 6 6 6 3 3 6 6 6 6 6 6 6 6 6 6 6 3 ' ' ' ' ' ' ' ' ~ .   ",
"  . ~ ' ' ' ' ' ' ' ' ' ' ' ' ' ' ' ' ' ' ' ' ' ' ' ' q.R D F F R q.' ' ' ' ' ' ' ' ' ' ' 6 6 6 6 6 6 6 6 6 6 3 3 6 6 6 6 6 6 6 6 6 6 6 3 ' ' ' ' ' ' ' ' ~ .   ",
"  . ~ ' ' ' ' ' ' ' ' ' ' ' ' ' ' ' ' ' ' ' ' ' ' ' ' ] >.M m l X.' ' ' ' ' ' ' ' ' ' ' ' 6 6 6 3 3 3 3 6 6 6 3 3 6 6 6 6 6 6 6 6 6 6 6 3 ' ' ' ' ' ' ' ' ~ .   ",
"  . ~ ' ' ' ' ' ' ' ' ' ' ' ' ' ' ' ' ' ' ' ' ' ' ' ' ' >.s *.O.>.' ' ' ' ' ' ' ' ' ' ' ' 6 6 ' ' ' ' 3 3 3 3 3 3 3 6 6 6 6 6 6 6 6 ' ' ' ' ' ' ' ' ' ' ' ~ .   ",
"  . ~ ' ' ' ' ' ' ' ' ' ' ' ' ' ' ' ' ' ' ' ' 5 5 5 5 5 5 4 5 5 5 5 4 5 5 ' ' ' ' ' ' ' ' 2 ' ' ' ' ' ' ' ' ' ' ' 3 3 3 6 6 ' ' ' ' ' ' ' ' ' ' ' ' ' ' ' ~ .   ",
"  . ~ ' ' ' ' ' ' ' ' ' ' ' ' ' ' ' ' ' ' 4 4 4 4 4 4 4 4 4 4 4 4 4 4 4 4 4 7 ' ' ' ' ' ' 2 ' ' ' ' ' ' ' ' ' ' ' ' ' 3 ' ' ' ' ' ' ' ' ' ' ' ' ' ' ' ' ' ~ .   ",
"  . ~ ' ' ' ' ' ' ' ' ' ' ' ' ' ' ' ' ' 7 4 4 4 4 4 4 4 4 4 4 4 4 4 4 4 4 4 4 ( ' ' ' ' ' 2 ' ' ' ' ' ' ' ' ' ' ' ' ' ' ' ' ' ' ' ' ' ' ' ' ' ' ' ' ' ' ' ~ .   ",
"  . ~ ' ' ' ' ' ' ' ' ' ' ' ' ' ' ' ' ' 4 4 4 4 4 4 4 4 4 4 4 4 4 4 4 4 4 4 4 7 ' ' ' ' ' 2 ' ' ' ' ' ' ' ' ' ' ' ' ' ' ' ' ' ' ' ' ' ' ' ' ' ' ' ' ' ' ' ~ .   ",
"  . ~ ' ' ' ' ' ' ' ' ' ' ' ' ' ' ' ' ' 4 4 4 4 4 4 4 4 4 4 4 4 4 4 4 4 4 4 4 4 _ ' ' ' ' 2 ' ' ' ' ' ' ' ' ' ' ' ' ' ' ' ' ' ' ' ' ' ' ' ' ' ' ' ' ' ' ' ~ .   ",
"  . ~ ' ' ' ' ' ' ' ' ' ' ' ' ' ' ' ' ' 4 4 4 4 4 4 4 4 4 4 4 4 4 4 4 4 4 4 4 4 4 ' ' ' ' 2 ' ' ' ' ' ' ' ' ' ' ' ' ' ' ' ' ' ' ' ' ' ' ' ' ' ' ' ' ' ' ' ~ .   ",
"  . ~ ' ' ' ' ' ' ' ' ' ' ' ' ' ' ' ' ' 4 4 4 4 4 4 4 4 4 4 4 4 4 4 4 4 7 4 4 4 4 7 ' ' ' 2 ' ' ' ' ' ' ' ' ' ' ' ' ' ' ' ' ' ' ' ' ' ' ' ' ' ' ' ' ' ' ' ~ .   ",
"  . ~ ' ' ' ' ' ' ' ' ' ' ' ' ' ' ' ' ' 4 4 4 4 4 4 4 4 4 4 4 4 4 4 4 4 4.4 4 4 4 4 ' ' ' 2 ' ' ' ' ' ' ' ' ' ' ' ' ' ' ' ' ' ' ' ' ' ' ' ' ' ' ' ' ' ' ' ~ .   ",
"  . ~ ' ' ' ' ' ' ' ' ' ' ' ' ' ' ' ' ' 4 4 4 7 4 4 4 4 4 4 4 4 4 4 4 4 ' 4 4 4 4 4 ' ' ' 2 ' ' ' ' ' ' ' ' ' ' ' ' ' ' ' ' ' ' ' ' ' ' ' ' ' ' ' ' ' ' ' ~ .   ",
"  . ~ ' ' ' ' ' ' ' ' ' ' ' ' ' ' ' ' 7 4 4 4 7 4 4 4 4 4 4 4 4 4 4 4 4 ' 4 4 4 4 4 ' ' ' 2 ' ' ' ' ' ' ' ' ' ' ' ' ' ' ' ' ' ' ' ' ' ' ' ' ' ' ' ' ' ' ' ~ .   ",
"  . ~ ' ' ' ' ' ' ' ' ' ' ' ' ' ' ' ' 4 4 4 4 ' 4 4 4 4 4 4 4 4 4 4 4 4 ' 7 4 4 4 4 7 ' ' 2 ' ' ' ' ' ' ' ' ' ' ' ' ' ' ' ' ' ' ' ' ' ' ' ' ' ' ' ' ' ' ' ~ .   ",
"  . ~ ' ' ' ' ' ' ' ' ' ' ' ' ' ' ' ' 4 4 4 4 ' 4 4 4 4 4 4 4 4 4 4 4 4 ' ` 4 4 4 4 4 ' ' 2 ' ' ' ' ' ' ' ' ' ' ' ' ' ' ' ' ' ' ' ' ' ' ' ' ' ' ' ' ' ' ' ~ .   ",
"  . ~ ' ' ' ' ' ' ' ' ' ' ' ' ' ' ' ' 4 4 4 4 ' 4 4 4 4 4 4 4 4 4 4 4 4 ' ' 7 4 4 4 4 ' ' 2 ' ' ' ' ' ' ' ' ' ' ' ' ' ' ' ' ' ' ' ' ' ' ' ' ' ' ' ' ' ' ' ~ .   ",
"  . ~ ' ' ' ' ' ' ' ' ' ' ' ' ' ' ' ' 4 4 4 4 ' 4 4 4 4 4 4 4 4 4 4 4 4 ' ' ' 4 4 4 4 4 ' 2 ' ' ' ' ' ' ' ' ' ' ' ' ' ' ' ' ' ' ' ' ' ' ' ' ' ' ' ' ' ' ' ~ .   ",
"  . ~ ' ' ' ' ' ' ' ' ' ' ' ' ' ' ' 4 4 4 4 7 ' 4 4 4 4 4 4 4 4 4 4 4 4 ' ' ' ' 7 4 4 4 ' 2 ' ' ' ' ' ' ' ' ' ' ' ' ' ' ' ' ' ' ' ' ' ' ' ' ' ' ' ' ' ' ' ~ .   ",
"  . ~ ' ' ' ' ' ' ' ' ' ' ' ' ' ' ' 4 4 4 4 7 ' 4 4 4 4 4 4 4 4 4 4 4 4 ' ' ' ' 7 4 4 4 ' 2 ' ' ' ' ' ' ' ' ' ' ' ' ' ' ' ' ' ' ' ' ' ' ' ' ' ' ' ' ' ' ' ~ .   ",
"  . ~ ' ' ' ' ' ' ' ' ' ' ' ' ' ' ' 4 4 4 4 ' ' E E E E E E E E E E E E ' ' ' ' ' 4 4 4 4 2 ' ' ' ' ' ' ' ' ' ' ' ' ' ' ' ' ' ' ' ' ' ' ' ' ' ' ' ' ' ' ' ~ .   ",
"  . ~ ' ' ' ' ' ' ' ' ' ' ' ' ' ' 7 4 4 4 4 ' ' E E E E E E E E E E E E ' ' ' ' ' 4 4 4 4 2 ' ' ' ' ' ' ' ' ' ' ' ' ' ' ' ' ' ' ' ' ' ' ' ' ' ' ' ' ' ' ' ~ .   ",
"  . ~ ' ' ' ' ' ' ' ' ' ' ' ' ' ' 4 4 4 4 4 ' ' E E E E E W W E E E E E ' ' ' ' ' ' 7 7 <.<.0.' ' ' ' ' ' ' ' ' ' ' ' ' ' ' ' ' ' ' ' ' ' ' ' ' ' ' ' ' ' ~ .   ",
"  . ~ ' ' ' ' ' ' ' ' ' ' ' ' ' w.t 7 7 4 4 ' ' E E E E E ! ' E E E E E ' ' ' ' ' ' ' <.,.<.1.0.' ' ' ' ' ' ' ' ' ' ' ' ' ' ' ' ' ' ' ' ' ' ' ' ' ' ' ' ' ~ .   ",
"  . ~ ' ' ' ' ' ' ' ' ' ' ' ' ' | +.B Z $.{ ' ' E E E E E ! ' E E E E E ' ' ' ' ' ' ' ' -.<.1.w.' ' ' ' ' ' ' ' ' ' ' ' ' ' ' ' ' ' ' ' ' ' ' ' ' ' ' ' ' ~ .   ",
"  . ~ ' ' ' ' ' ' ' ' ' ' ' ' ' 8.:.n v [ ..' ' E E E E E ! ' E E E E E ' ' ' ' ' ' ' ' ' ' ' ' ' ' ' ' ' ' ' ' ' ' ' ' ' ' ' ' ' ' ' ' ' ' ' ' ' ' ' ' ' ~ .   ",
"  . ~ ' ' ' ' ' ' ' ' ' ' ' ' ' ' ' ' ' ' ' ' ' E E E E E ! ' E E E E E ' ' ' ' ' ' ' ' ' ' ' ' ' ' ' ' ' ' ' ' ' ' ' ' ' ' ' ' ' ' ' ' ' ' ' ' ' ' ' ' ' ~ .   ",
"  . ~ ' ' ' ' ' ' ' ' ' ' ' ' ' ' ' ' ' ' ' ' ' E E E E E ! ' E E E E E ' ' ' ' ' ' ' ' ' ' ' ' ' ' ' ' ' ' ' ' ' ' ' ' ' ' ' ' ' ' ' ' ' ' ' ' ' ' ' ' ' ~ .   ",
"  . ~ ' ' ' ' ' ' ' ' ' ' ' ' ' ' ' ' ' ' ' ' ' E E E E E ! ' E E E E E ' ' ' ' ' ' ' ' ' ' ' ' ' ' ' ' ' ' ' ' ' ' ' ' ' ' ' ' ' ' ' ' ' ' ' ' ' ' ' ' ' ~ .   ",
"  . ~ ' ' ' ' ' ' ' ' ' ' ' ' ' ' ' ' ' ' ' ' ' E E E E E ! ' E E E E E ' ' ' ' ' ' ' ' ' ' ' ' ' ' ' ' ' ' ' ' ' ' ' ' ' ' ' ' ' ' ' ' ' ' ' ' ' ' ' ' ' ~ .   ",
"  . ~ ' ' ' ' ' ' ' ' ' ' ' ' ' ' ' ' ' ' ' ' ' E E E E E ! ' E E E E E ' ' ' ' ' ' ' ' ' ' ' ' ' ' ' ' ' ' ' ' ' ' ' ' ' ' ' ' ' ' ' ' ' ' ' ' ' ' ' ' ' ~ .   ",
"  . ~ ' ' ' ' ' ' ' ' ' ' ' ' ' ' ' ' ' ' ' ' ' E E E E E ! ' E E E E E ' ' ' ' ' ' ' ' ' ' ' ' ' ' ' ' ' ' ' ' ' ' ' ' ' ' ' ' ' ' ' ' ' ' ' ' ' ' ' ' ' ~ .   ",
"  . ~ ' ' ' ' ' ' ' ' ' ' ' ' ' ' ' ' ' ' ' ' ' E E E E E ! ' E E E E E ' ' ' ' ' ' ' ' ' ' ' ' ' ' ' ' ' ' ' ' ' ' ' ' ' ' ' ' ' ' ' ' ' ' ' ' ' ' ' ' ' ~ .   ",
"  . ~ ' ' ' ' ' ' ' ' ' ' ' ' ' ' ' ' ' ' ' ' ' E E E E E ! ' E E E E E ' ' ' ' ' ' ' ' ' ' ' ' ' ' ' ' ' ' ' ' ' ' ' ' ' ' ' ' ' ' ' ' ' ' ' ' ' ' ' ' ' ~ .   ",
"  . ~ ' ' ' ' ' ' ' ' ' ' ' ' ' ' ' ' ' ' ' ' ' E E E E E ! ' E E E E E ' ' ' ' ' ' ' ' ' ' ' ' ' ' ' ' ' ' ' ' ' ' ' ' ' ' ' ' ' ' ' ' ' ' ' ' ' ' ' ' ' ~ .   ",
"  . ~ ' ' ' ' ' ' ' ' ' ' ' ' ' ' ' ' ' ' ' ' ' E E E E E ! ' E E E E E ' ' ' ' ' ' ' ' ' ' ' ' ' ' ' ' ' ' ' ' ' ' ' ' ' ' ' ' ' ' ' ' ' ' ' ' ' ' ' ' ' ~ .   ",
"  . ~ ' ' ' ' ' ' ' ' ' ' ' ' ' ' ' ' ' ' ' ' ' E E E E E ! ' E E E E E ' ' ' ' ' ' ' ' ' ' ' ' ' ' ' ' ' ' ' ' ' ' ' ' ' ' ' ' ' ' ' ' ' ' ' ' ' ' ' ' ' ~ .   ",
"  . ~ ' ' ' ' ' ' ' ' ' ' ' ' ' ' ' ' ' ' ' ' ' E E E E E ! ' E E E E E ' ' ' ' ' ' ' ' ' ' ' ' ' ' ' ' ' ' ' ' ' ' ' ' ' ' ' ' ' ' ' ' ' ' ' ' ' ' ' ' ' ~ .   ",
"  . ~ ' ' ' ' ' ' ' ' ' ' ' ' ' ' ' ' ' ' ' ' ' E E E E E ! ' E E E E E ' ' ' ' ' ' ' ' ' ' ' ' ' ' ' ' ' ' ' ' ' ' ' ' ' ' ' ' ' ' ' ' ' ' ' ' ' ' ' ' ' ~ .   ",
"  . ~ ' ' ' ' ' ' ' ' ' ' ' ' ' ' ' ' ' ' ' ' ' E E E E E ! ' E E E E E ' ' ' ' ' ' ' ' ' ' ' ' ' ' ' ' ' ' ' ' ' ' ' ' ' ' ' ' ' ' ' ' ' ' ' ' ' ' ' ' ' ~ .   ",
"  . ~ ' ' ' ' ' ' ' ' ' ' ' ' ' ' ' ' ' ' ' ' ' E E E E E ! ' E E E E E ' ' ' ' ' ' ' ' ' ' ' ' ' ' ' ' ' ' ' ' ' ' ' ' ' ' ' ' ' ' ' ' ' ' ' ' ' ' ' ' ' ~ .   ",
"  . ~ ' ' ' ' ' ' ' ' ' ' ' ' ' ' ' ' ' ' ' ' ' E E E E E ! ' E E E E E ' ' ' ' ' ' ' ' ' ' ' ' ' ' ' ' ' ' ' ' ' ' ' ' ' ' ' ' ' ' ' ' ' ' ' ' ' ' ' ' ' ~ .   ",
"  . ~ ' ' ' ' ' ' ' ' ' ' ' ' ' ' ' ' ' ' ' ' ' E E E E E ! ' E E E E E ' ' ' ' ' ' ' ' ' ' ' ' ' ' ' ' ' ' ' ' ' ' ' ' ' ' ' ' ' ' ' ' ' ' ' ' ' ' ' ' ' ~ .   ",
"  . ~ ' ' ' ' ' ' ' ' ' ' ' ' ' ' ' ' ' ' ' ' ' E E E E E ! ' E E E E E ' ' ' ' ' ' ' ' ' ' ' ' ' ' ' ' ' ' ' ' ' ' ' ' ' ' ' ' ' ' ' ' ' ' ' ' ' ' ' ' ' ~ .   ",
"  . ~ ' ' ' ' ' ' ' ' ' ' ' ' ' ' ' ' ' ' ' ' ) W W W W W ! ' W W W W W / ' ' ' ' ' ' ' ' ' ' ' ' ' ' ' ' ' ' ' ' ' ' ' ' ' ' ' ' ' ' ' ' ' ' ' ' ' ' ' ' ~ .   ",
"  . ~ ' ' ' ' ' ' ' ' ' ' ' ' ' ' ' ' ' ' ' < ; o o o o o ^ ' : X $ # @ - Q ' ' ' ' ' ' ' ' ' ' ' ' ' ' ' ' ' ' ' ' ' ' ' ' ' ' ' ' ' ' ' ' ' ' ' ' ' ' ' ~ .   ",
"  . ~ ' ' ' ' ' ' ' ' ' ' ' ' ' ' ' ' ' ' > * * = = = = = ^ ' 1 ; = = = = X , ' ' ' ' ' ' ' ' ' ' ' ' ' ' ' ' ' ' ' ' ' ' ' ' ' ' ' ' ' ' ' ' ' ' ' ' ' ' ~ .   ",
"  . ~ ' ' ' ' ' ' ' ' ' ' ' ' ' ' ' ' ' ' ' ' ' ' ' ' ' ' ' ' ' ' ' ' ' ' ' ' ' ' ' ' ' ' ' ' ' ' ' ' ' ' ' ' ' ' ' ' ' ' ' ' ' ' ' ' ' ' ' ' ' ' ' ' ' ' ~ .   ",
"  . ~ ' ' ' ' ' ' ' ' ' ' ' ' ' ' ' ' ' ' ' ' ' ' ' ' ' ' ' ' ' ' ' ' ' ' ' ' ' ' ' ' ' ' ' ' ' ' ' ' ' ' ' ' ' ' ' ' ' ' ' ' ' ' ' ' ' ' ' ' ' ' ' ' ' ' ~ .   ",
"  . ~ ' ' ' ' ' ' ' ' ' ' ' ' ' ' ' ' ' ' ' ' ' ' ' ' ' ' ' ' ' ' ' ' ' ' ' ' ' ' ' ' ' ' ' ' ' ' ' ' ' ' ' ' ' ' ' ' ' ' ' ' ' ' ' ' ' ' ' ' ' ' ' ' ' ' ~ .   ",
"  . ~ ' ' ' ' ' ' ' ' ' ' ' ' ' ' ' ' ' ' ' ' ' ' ' ' ' ' ' ' ' ' ' ' ' ' ' ' ' ' ' ' ' ' ' ' ' ' ' ' ' ' ' ' ' ' ' ' ' ' ' ' ' ' ' ' ' ' ' ' ' ' ' ' ' ' ~ .   ",
"  . ~ ~ ~ ~ ~ ~ ~ ~ ~ ~ ~ ~ ~ ~ ~ ~ ~ ~ ~ ~ ~ ~ ~ ~ ~ ~ ~ ~ ~ ~ ~ ~ ~ ~ ~ ~ ~ ~ ~ ~ ~ ~ ~ ~ ~ ~ ~ ~ ~ ~ ~ ~ ~ ~ ~ ~ ~ ~ ~ ~ ~ ~ ~ ~ ~ ~ ~ ~ ~ ~ ~ ~ ~ ~ ~ ~ .   ",
"  . . . . . . . . . . . . . . . . . . . . . . . . . . . . . . . . . . . . . . . . . . . . . . . . . . . . . . . . . . . . . . . . . . . . . . . . . . . . . .   ",
"                                                                                                                                                                "
};
