/* XPM */
static char *_6df736153b143a4c02a76d78f48cfdaXsc0K9apcrsn6KiQ[] = {
/* columns rows colors chars-per-pixel */
"80 80 180 2 ",
"   c #17170E",
".  c #1F170A",
"X  c #1E1B0D",
"o  c #000E12",
"O  c #04101D",
"+  c #0A1119",
"@  c #031C1F",
"#  c #151614",
"$  c #191715",
"%  c #1C1B15",
"&  c #16171A",
"*  c #19151E",
"=  c #151E1A",
"-  c #1C1B19",
";  c #240900",
":  c #390B00",
">  c #2F1307",
",  c #2E1D0D",
"<  c #341301",
"1  c #3B1502",
"2  c #341C03",
"3  c #3C1904",
"4  c #31160C",
"5  c #3C1509",
"6  c #341A0E",
"7  c #3C1C0C",
"8  c #241713",
"9  c #2C1717",
"0  c #231816",
"q  c #2E1813",
"w  c #221A1A",
"e  c #341713",
"r  c #331C12",
"t  c #3A1F14",
"y  c #341B1B",
"u  c #3E1F1B",
"i  c #13201F",
"p  c #2E210D",
"a  c #372208",
"s  c #2C231C",
"d  c #3C2114",
"f  c #35221D",
"g  c #0C1F26",
"h  c #031E2A",
"j  c #131722",
"k  c #151D22",
"l  c #1D1B22",
"z  c #0A1D36",
"x  c #311F23",
"c  c #0C2227",
"v  c #0C232A",
"b  c #162123",
"n  c #192023",
"m  c #172129",
"M  c #1A252B",
"N  c #19292F",
"B  c #042431",
"V  c #012C38",
"C  c #1C2034",
"Z  c #122D33",
"A  c #1A3035",
"S  c #252423",
"D  c #292624",
"F  c #252825",
"G  c #282A28",
"H  c #342F2B",
"J  c #32312F",
"K  c #272D34",
"L  c #373936",
"P  c #3D3B3B",
"I  c #421500",
"U  c #411804",
"Y  c #431A0B",
"T  c #4C1F09",
"R  c #411C18",
"E  c #522502",
"W  c #44353A",
"Q  c #413C3C",
"!  c #6A3A25",
"~  c #7B4A22",
"^  c #7D5127",
"/  c #6A4632",
"(  c #103E4F",
")  c #363C46",
"_  c #3A3B42",
"`  c #413C48",
"'  c #2E4145",
"]  c #2C404A",
"[  c #244456",
"{  c #2C4452",
"}  c #3A4E5D",
"|  c #26525D",
" . c #304362",
".. c #375A64",
"X. c #494A46",
"o. c #4D4C4A",
"O. c #514C49",
"+. c #53514E",
"@. c #5E544B",
"#. c #4A4D53",
"$. c #495151",
"%. c #555352",
"&. c #575857",
"*. c #685E61",
"=. c #93623A",
"-. c #9D6848",
";. c #A27653",
":. c #B58E7F",
">. c #C48557",
",. c #D48D66",
"<. c #C6966D",
"1. c #DC9A66",
"2. c #D3996B",
"3. c #DC9E6D",
"4. c #CF9A70",
"5. c #D69E75",
"6. c #E79F6C",
"7. c #D6A373",
"8. c #DDA472",
"9. c #D6AA77",
"0. c #D8A976",
"q. c #DBA57C",
"w. c #E8A263",
"e. c #E4A46D",
"r. c #EAA36B",
"t. c #E2A473",
"y. c #E7A577",
"u. c #E5AA7D",
"i. c #E9AB79",
"p. c #F2AE77",
"a. c #E4B27F",
"s. c #347798",
"d. c #436E81",
"f. c #45738B",
"g. c #497488",
"h. c #587180",
"j. c #4A7890",
"k. c #667A95",
"l. c #068BB3",
"z. c #53869A",
"x. c #5B8598",
"c. c #5F8AA1",
"v. c #5E8FAE",
"b. c #6E8FA7",
"n. c #7B99A4",
"m. c #7DA8BC",
"M. c #76ABC3",
"N. c #57C7E6",
"B. c #7CC5E0",
"V. c #948A87",
"C. c #9D9C9B",
"Z. c #A69991",
"A. c #BDB190",
"S. c #BBAEA1",
"D. c #AEB0AF",
"F. c #A9B9B0",
"G. c #A0B3BA",
"H. c #ADBCB8",
"J. c #B9B8B6",
"K. c #C9AC8F",
"L. c #D6A681",
"P. c #DCA983",
"I. c #DBB480",
"U. c #EAAF82",
"Y. c #E7B080",
"T. c #E3B593",
"R. c #C2AEA8",
"E. c #C3B5A3",
"W. c #88B7CA",
"Q. c #9FBAC1",
"!. c #83BDD2",
"~. c #98BDD3",
"^. c #8FC0CE",
"/. c #85C5D0",
"(. c #93C6DB",
"). c #A8C2C6",
"_. c #D1D0CE",
"`. c #FCFBF6",
"'. c #F6F9F8",
"]. c #FEFEFE",
/* pixels */
"o o o o o o o o o o o o o o o o o o o o o o o o o o o o o o o o o o o o o o o o o o o o o o o o o o o o o o o o o o o o o o o o o o o o o o o o o o o o o o o o ",
"o V V V V V V V V V V V V V V V V V V V V V V V V V V V V V V V V V V V V V V V V V V V V V V V V V V V V V V V V V V V V V V V V V V V V V V V V V V V V V V o ",
"o V l.l.l.l.l.l.l.l.l.l.l.l.l.l.l.l.l.l.l.l.l.l.l.l.l.l.l.l.l.l.l.l.l.l.l.l.l.l.l.l.l.l.l.l.l.l.l.l.l.l.l.l.l.l.l.l.l.l.l.l.l.l.l.l.l.l.l.l.l.l.l.l.l.l.l.l.V o ",
"o V l.N.N.N.N.N.N.N.N.N.N.N.N.N.N.N.N.N.N.N.N.N.N.N.N.N.N.N.N.N.N.N.N.N.N.N.N.N.N.N.N.N.N.N.N.N.N.N.N.N.N.N.N.N.N.N.N.N.N.N.N.N.N.N.N.N.N.N.N.N.N.N.N.N.N.l.V o ",
"o V l.N.N.N.N.N.N.N.N.N.N.N.N.N.N.N.N.N.N.N.N.N.N.N.N.N.N.N.N.N.N.N.N.N.N.N.N.N.N.N.N.N.N.N.N.N.N.N.N.N.N.N.N.N.N.N.N.N.N.N.N.N.N.N.N.N.N.N.N.N.N.N.N.N.N.l.V o ",
"o V l.N.N.N.N.N.N.N.N.N.N.N.N.N.N.N.N.N.N.N.N.N.N.N.N.N.N.N.N.N.N.N.N.N.N.N.N.N.N.N.N.N.N.N.N.N.N.N.N.N.N.N.N.N.N.N.N.N.N.N.N.N.N.N.N.N.N.N.N.N.N.N.N.N.N.l.V o ",
"o V l.N.N.N.N.N.N.N.N.N.N.N.N.N.N.N.N.N.N.N.N.N.N.N.N.N.N.N.N.N.N.N.N.N.N.N.N.N.N.N.N.N.N.N.N.N.N.N.N.N.N.N.N.N.N.N.N.N.N.N.N.N.N.N.N.N.N.N.N.N.N.N.N.N.N.l.V o ",
"o V l.N.N.N.N.N.N.N.N.N.N.N.N.N.N.N.N.N.N.N.N.N.N.N.N.N.N.N.N.N.N.N.N.N.N.N.N.N.N.N.N.N.N.N.N.N.N.N.N.N.N.N.N.N.N.N.N.N.N.N.N.N.N.N.N.N.N.N.N.N.N.N.N.N.N.l.V o ",
"o V l.N.N.N.N.N.N.N.N.N.N.N.N.N.N.N.N.N.N.N.N.N.N.N.N.N.N.N.N.N.N.N.N.N.N.N.N.N.N.N.N.N.N.N.N.N.N.N.N.N.N.N.N.N.N.N.N.N.N.N.N.N.N.N.N.N.N.N.N.N.N.N.N.N.N.l.V o ",
"o V l.N.N.N.N.N.N.N.N.N.N.N.N.N.N.N.N.N.N.N.N.N.N.N.N.N.N.N.N.N.N.N.N.N.N.N.N.N.N.N.N.N.N.N.N.N.N.N.N.N.N.N.N.N.N.N.N.N.N.N.N.N.N.N.N.N.N.N.N.N.N.N.N.N.N.l.V o ",
"o V l.N.N.N.N.N.N.N.N.N.N.N.N.N.N.N.N.N.N.N.N.N.N.N.N.N.N.N.N.N.N.N.N.N.N.N.N.N.N.N.N.N.N.N.N.N.N.N.N.N.N.N.N.N.N.N.N.N.N.N.N.N.N.N.N.N.N.N.N.N.N.N.N.N.N.l.V o ",
"o V l.N.N.N.N.N.N.N.N.N.N.N.N.N.N.N.N.N.N.N.N.N.N.N.N.N.N.N.N.N.N.N.N.N.N.N.N.N.N.N.N.N.N.N.N.N.N.N.N.N.N.N.N.N.N.N.N.N.N.N.N.N.N.N.N.N.N.N.N.N.N.N.N.N.N.l.V o ",
"o V l.N.N.N.N.N.N.N.N.N.N.N.N.N.N.N.N.N.N.N.N.N.N.N.N.N.N.N.N.N.N.N.{ 0 3 4 , 6 , p 0 N.N.N.N.N.N.N.N.N.N.N.N.N.N.N.N.N.N.N.N.N.N.N.N.N.N.N.N.N.N.N.N.N.N.l.V o ",
"o V l.N.N.N.N.N.N.N.N.N.N.N.N.N.N.N.N.N.N.N.N.N.N.N.N.N.N.N.N.N.v.d 4 6 6 6 r 6 7 6 r , , N.N.N.N.N.N.N.N.N.N.N.N.N.N.N.N.N.N.N.N.N.N.N.N.N.N.N.N.N.N.N.N.l.V o ",
"o V l.N.N.N.N.N.N.N.N.N.N.N.N.N.N.N.N.N.N.N.N.N.N.N.N.N.N.N.N.N.h.6 r 4 t 6 6 6 6 r r r d m N.N.N.N.N.N.N.N.N.N.N.N.N.N.N.N.N.N.N.N.N.N.N.N.N.N.N.N.N.N.N.l.V o ",
"o V l.N.N.N.N.N.N.N.N.N.N.N.N.N.N.N.N.N.N.N.N.N.N.N.N.N.N.N.N.v D 6 4 6 6 6 6 r q 6 6 , 6 % N.N.N.N.N.N.N.N.N.N.N.N.N.N.N.N.N.N.N.N.N.N.N.N.N.N.N.N.N.N.N.l.V o ",
"o V l.N.N.N.N.N.N.N.N.N.N.N.N.N.N.N.N.N.N.N.N.N.N.N.N.N.N.N.N.w 3 6 6 t 6 6 6 r r -.< ; 1 e N.N.N.N.N.N.N.N.N.N.N.N.N.N.N.N.N.N.N.N.N.N.N.N.N.N.N.N.N.N.N.l.V o ",
"o V l.N.N.N.N.N.N.N.N.N.N.N.N.N.N.N.N.N.N.N.N.N.N.N.N.N.N.N.M 5 d e 6 2 t > 3 P.q.4.6.u.<.7 N.N.N.N.N.N.N.N.N.N.N.N.N.N.N.N.N.N.N.N.N.N.N.N.N.N.N.N.N.N.N.l.V o ",
"o V l.N.N.N.N.N.N.N.N.N.N.N.N.N.N.N.N.N.N.N.N.N.N.N.N.N.N.N.b.j t 5 < < 3 ! e.p.1.< : t.5.1 N.N.N.N.N.N.N.N.N.N.N.N.N.N.N.N.N.N.N.N.N.N.N.N.N.N.N.N.N.N.N.l.V o ",
"o V l.N.N.N.N.N.N.N.N.N.N.N.N.N.N.N.N.N.N.N.N.N.N.N.N.N.N.N.N.~.w q.9.<.T.2.t.e.t.U.L.8.y.I B.N.N.N.N.N.N.N.N.N.N.N.N.N.N.N.N.N.N.N.N.N.N.N.N.N.N.N.N.N.N.l.V o ",
"o V l.N.N.N.N.N.N.N.N.N.N.N.N.N.N.N.N.N.N.N.N.N.N.N.N.N.N.N.Q.E.3 r.a.E U ~ 8.e.t.E ;.6.r.I K.^.N.N.N.N.N.N.N.N.N.N.N.N.N.N.N.N.N.N.N.N.N.N.N.N.N.N.N.N.N.l.V o ",
"o V l.N.N.N.N.N.N.N.N.N.N.N.N.N.N.N.N.N.N.N.N.N.N.N.N.N.N.N.K.y.2 t.3.u.t.i.e.r.6.u.y.6.7.2 w.F.N.N.N.N.N.N.N.N.N.N.N.N.N.N.N.N.N.N.N.N.N.N.N.N.N.N.N.N.N.l.V o ",
"o V l.N.N.N.N.N.N.N.N.N.N.N.N.N.N.N.N.N.N.N.N.N.N.N.N.N.N.N.^.K.I i.y.1.e.t.8.t.t.8.6.r.8.1 S.~.N.N.N.N.N.N.N.N.N.N.N.N.N.N.N.N.N.N.N.N.N.N.N.N.N.N.N.N.N.l.V o ",
"o V l.N.N.N.N.N.N.N.N.N.N.N.N.N.N.N.N.N.N.N.N.N.N.N.N.N.N.N.N.W.r =.7.0.4.E U 3 Y T Y.3.-.5 /.N.N.N.N.N.N.N.N.N.N.N.N.N.N.N.N.N.N.N.N.N.N.N.N.N.N.N.N.N.N.l.V o ",
"o V l.N.N.N.N.N.N.N.N.N.N.N.N.N.N.N.N.N.N.N.N.N.N.N.N.N.N.N.N.N.k.t 1 / 7 f >.1.,.f / < Y 9 N.N.N.N.N.N.N.N.N.N.N.N.N.N.N.N.N.N.N.N.N.N.N.N.N.N.N.N.N.N.N.l.V o ",
"o V l.N.N.N.N.N.N.N.N.N.N.N.N.N.N.N.N.N.N.N.N.N.N.N.N.N.N.N.N.N.N.e 7 4 H x U U U U > U U n N.N.N.N.N.N.N.N.N.N.N.N.N.N.N.N.N.N.N.N.N.N.N.N.N.N.N.N.N.N.N.l.V o ",
"o V l.N.N.N.N.N.N.N.N.N.N.N.N.N.N.N.N.N.N.N.N.N.N.N.N.N.N.N.N.N.N.N.& u R t 7 y y 6 w { !.N.N.N.N.N.N.N.N.N.N.N.N.N.N.N.N.N.N.N.N.N.N.N.N.N.N.N.N.N.N.N.N.l.V o ",
"o V l.N.N.N.N.N.N.N.N.N.N.N.N.N.N.N.N.N.N.N.N.N.N.N.N.N.N.N.N.N.N.N.N.N.b.s 2 4 1 G (.N.N.N.N.N.N.N.N.N.N.N.N.N.N.N.N.N.N.N.N.N.N.N.N.N.N.N.N.N.N.N.N.N.N.l.V o ",
"o V l.N.N.N.N.N.N.N.N.N.N.N.N.N.N.N.N.N.N.N.N.N.N.N.N.N.N.N.N.N.N.N.N.N.B.E.q.L.t.H.N.N.N.N.N.N.N.N.N.N.N.N.N.N.N.N.N.N.N.N.N.N.N.N.N.N.N.N.N.N.N.N.N.N.N.l.V o ",
"o V l.N.N.N.N.N.N.N.N.N.N.N.N.N.N.N.N.N.N.N.N.N.N.N.N.N.N.N.N.N.N.N.N.N.).`.2.U.L.].N.N.N.N.N.N.N.N.N.N.N.N.N.N.N.N.N.N.N.N.N.N.N.N.N.N.N.N.N.N.N.N.N.N.N.l.V o ",
"o V l.N.N.N.N.N.N.N.N.N.N.N.N.N.N.N.N.N.N.N.N.N.N.N.N.N.N.N.N.N.x.  +.&.#.D.V.Z.@.].*.b N x.N.N.N.N.N.N.N.N.N.N.N.N.N.N.N.N.N.N.N.N.N.N.N.N.N.N.N.N.N.N.N.l.V o ",
"o V l.N.N.N.N.N.N.N.N.N.N.N.N.N.N.N.N.N.N.N.N.N.N.N.N.N.N.N.h 0 8 K #.&.+.Z.].`.].X.$.X.- 8 0 h N.N.N.N.N.N.N.N.N.N.N.N.N.N.N.N.N.N.N.N.N.N.N.N.N.N.N.N.N.l.V o ",
"o V l.N.N.N.N.N.N.N.N.N.N.N.N.N.N.N.N.N.N.N.N.N.N.N.N.N.N.( + q % 8 O.+.+.o.].].].$.%.L $ 0 9 + ( N.N.N.N.N.N.N.N.N.N.N.N.N.N.N.N.N.N.N.N.N.N.N.N.N.N.N.N.l.V o ",
"o V l.N.N.N.N.N.N.N.N.N.N.N.N.N.N.N.N.N.N.N.N.N.N.N.N.N.N.B = 0 - - - Q +.o.].].].%.].J.S - - = B N.N.N.N.N.N.N.N.N.N.N.N.N.N.N.N.N.N.N.N.N.N.N.N.N.N.N.N.l.V o ",
"o V l.N.N.N.N.N.N.N.N.N.N.N.N.N.N.N.N.N.N.N.N.N.N.N.N.N.N.g * - - - # J +.%.].].].o.`.]._.- - - g N.N.N.N.N.N.N.N.N.N.N.N.N.N.N.N.N.N.N.N.N.N.N.N.N.N.N.N.l.V o ",
"o V l.N.N.N.N.N.N.N.N.N.N.N.N.N.N.N.N.N.N.N.N.N.N.N.N.N.N.S 0 0 k $ w P o.o.].'.].+.D - $ k w 0 S N.N.N.N.N.N.N.N.N.N.N.N.N.N.N.N.N.N.N.N.N.N.N.N.N.N.N.N.l.V o ",
"o V l.N.N.N.N.N.N.N.N.N.N.N.N.N.N.N.N.N.N.N.N.N.N.N.N.N.N.- - - - - - - P o.].].C.&.= = - - - - - N.N.N.N.N.N.N.N.N.N.N.N.N.N.N.N.N.N.N.N.N.N.N.N.N.N.N.N.l.V o ",
"o V l.N.N.N.N.N.N.N.N.N.N.N.N.N.N.N.N.N.N.N.N.N.N.N.N.N.N.- - - - - - - $ o.J.'.%.J k %   - - - - N.N.N.N.N.N.N.N.N.N.N.N.N.N.N.N.N.N.N.N.N.N.N.N.N.N.N.N.l.V o ",
"o V l.N.N.N.N.N.N.N.N.N.N.N.N.N.N.N.N.N.N.N.N.N.N.N.N.N.N.- - - - - - - - - X.R.%.- i % - - - - - N.N.N.N.N.N.N.N.N.N.N.N.N.N.N.N.N.N.N.N.N.N.N.N.N.N.N.N.l.V o ",
"o V l.N.N.N.N.N.N.N.N.N.N.N.N.N.N.N.N.N.N.N.N.N.N.N.N.N.m.- - w i - - - - - &.&.L - - 8 # - w - - m.N.N.N.N.N.N.N.N.N.N.N.N.N.N.N.N.N.N.N.N.N.N.N.N.N.N.N.l.V o ",
"o V l.N.N.N.N.N.N.N.N.N.N.N.N.N.N.N.N.N.N.N.N.N.N.N.N.N.v - w w * - - - - - % - - - = 8 l l 0 w w v N.N.N.N.N.N.N.N.N.N.N.N.N.N.N.N.N.N.N.N.N.N.N.N.N.N.N.l.V o ",
"o V l.N.N.N.N.N.N.N.N.N.N.N.N.N.N.N.N.N.N.N.N.N.N.N.N.N.N w w - k - - - - - - - - - = 8 l j * w 0 Z N.N.N.N.N.N.N.N.N.N.N.N.N.N.N.N.N.N.N.N.N.N.N.N.N.N.N.l.V o ",
"o V l.N.N.N.N.N.N.N.N.N.N.N.N.N.N.N.N.N.N.N.N.N.N.N.N.!.k w w k O - - - - - - % - % = 8 l O k 0 w = !.N.N.N.N.N.N.N.N.N.N.N.N.N.N.N.N.N.N.N.N.N.N.N.N.N.N.l.V o ",
"o V l.N.N.N.N.N.N.N.N.N.N.N.N.N.N.N.N.N.N.N.N.N.N.N.N.c.k 0 0 k } - - - - - - - - % i 0 l } k 0 0 k c.N.N.N.N.N.N.N.N.N.N.N.N.N.N.N.N.N.N.N.N.N.N.N.N.N.N.l.V o ",
"o V l.N.N.N.N.N.N.N.N.N.N.N.N.N.N.N.N.N.N.N.N.N.N.N.N.g S l 8 b N.- - - - - - - - - = % l N.b 8 l S g N.N.N.N.N.N.N.N.N.N.N.N.N.N.N.N.N.N.N.N.N.N.N.N.N.N.l.V o ",
"o V l.N.N.N.N.N.N.N.N.N.N.N.N.N.N.N.N.N.N.N.N.N.N.N.N.k - - 0 c N.- - - - - - - - % = 8 l N.g 0 l - k N.N.N.N.N.N.N.N.N.N.N.N.N.N.N.N.N.N.N.N.N.N.N.N.N.N.l.V o ",
"o V l.N.N.N.N.N.N.N.N.N.N.N.N.N.N.N.N.N.N.N.N.N.N.N.W.& w l w Z N.- - - - - - - - - i 8 l N.Z w l - & W.N.N.N.N.N.N.N.N.N.N.N.N.N.N.N.N.N.N.N.N.N.N.N.N.N.l.V o ",
"o V l.N.N.N.N.N.N.N.N.N.N.N.N.N.N.N.N.N.N.N.N.N.N.N.d.w & l - ..N.- - % % - - - - - i 8 l N...- l - w d.N.N.N.N.N.N.N.N.N.N.N.N.N.N.N.N.N.N.N.N.N.N.N.N.N.l.V o ",
"o V l.N.N.N.N.N.N.N.N.N.N.N.N.N.N.N.N.N.N.N.N.N.N.N.z - = . 9 N.N.- - - - - w C s * = 0 l N.N.e . * l B N.N.N.N.N.N.N.N.N.N.N.N.N.N.N.N.N.N.N.N.N.N.N.N.N.l.V o ",
"o V l.N.N.N.N.N.N.N.N.N.N.N.N.N.N.N.N.N.N.N.N.N.N.).:.^ a X * N.N.- - - - 0 g.N.m - = 0 l N.N.- X p =.Z.).N.N.N.N.N.N.N.N.N.N.N.N.N.N.N.N.N.N.N.N.N.N.N.N.l.V o ",
"o V l.N.N.N.N.N.N.N.N.N.N.N.N.N.N.N.N.N.N.N.N.N.N.F.P.w.8.I.A.N.N.% - - - - s.N.c l = 0 l N.N.S.a.8.w.3.F.N.N.N.N.N.N.N.N.N.N.N.N.N.N.N.N.N.N.N.N.N.N.N.N.l.V o ",
"o V l.N.N.N.N.N.N.N.N.N.N.N.N.N.N.N.N.N.N.N.N.N.N.^.R.0.8.A.Q.N.N.- - - - - g.N.c k & w l N.N.G.A.3.3.R.^.N.N.N.N.N.N.N.N.N.N.N.N.N.N.N.N.N.N.N.N.N.N.N.N.l.V o ",
"o V l.N.N.N.N.N.N.N.N.N.N.N.N.N.N.N.N.N.N.N.N.N.N.N.N.N.N.N.N.N.N.- - - - - f.N.c = = w l N.N.N.N.N.N.N.N.N.N.N.N.N.N.N.N.N.N.N.N.N.N.N.N.N.N.N.N.N.N.N.N.l.V o ",
"o V l.N.N.N.N.N.N.N.N.N.N.N.N.N.N.N.N.N.N.N.N.N.N.N.N.N.N.N.N.N.N.- - - - - f.N.c = = 0 l N.N.N.N.N.N.N.N.N.N.N.N.N.N.N.N.N.N.N.N.N.N.N.N.N.N.N.N.N.N.N.N.l.V o ",
"o V l.N.N.N.N.N.N.N.N.N.N.N.N.N.N.N.N.N.N.N.N.N.N.N.N.N.N.N.N.N.N.- - - - - f.N.c = = w l N.N.N.N.N.N.N.N.N.N.N.N.N.N.N.N.N.N.N.N.N.N.N.N.N.N.N.N.N.N.N.N.l.V o ",
"o V l.N.N.N.N.N.N.N.N.N.N.N.N.N.N.N.N.N.N.N.N.N.N.N.N.N.N.N.N.N.N.- % - - - f.N.c = = 0 l N.N.N.N.N.N.N.N.N.N.N.N.N.N.N.N.N.N.N.N.N.N.N.N.N.N.N.N.N.N.N.N.l.V o ",
"o V l.N.N.N.N.N.N.N.N.N.N.N.N.N.N.N.N.N.N.N.N.N.N.N.N.N.N.N.N.N.N.- - - - - g.N.c - = 0 l N.N.N.N.N.N.N.N.N.N.N.N.N.N.N.N.N.N.N.N.N.N.N.N.N.N.N.N.N.N.N.N.l.V o ",
"o V l.N.N.N.N.N.N.N.N.N.N.N.N.N.N.N.N.N.N.N.N.N.N.N.N.N.N.N.N.N.N.- % - - - f.N.c = i 0 l N.N.N.N.N.N.N.N.N.N.N.N.N.N.N.N.N.N.N.N.N.N.N.N.N.N.N.N.N.N.N.N.l.V o ",
"o V l.N.N.N.N.N.N.N.N.N.N.N.N.N.N.N.N.N.N.N.N.N.N.N.N.N.N.N.N.N.N.- - - - - f.N.c = = 0 l N.N.N.N.N.N.N.N.N.N.N.N.N.N.N.N.N.N.N.N.N.N.N.N.N.N.N.N.N.N.N.N.l.V o ",
"o V l.N.N.N.N.N.N.N.N.N.N.N.N.N.N.N.N.N.N.N.N.N.N.N.N.N.N.N.N.N.N.- - - - $ f.N.c = = w l N.N.N.N.N.N.N.N.N.N.N.N.N.N.N.N.N.N.N.N.N.N.N.N.N.N.N.N.N.N.N.N.l.V o ",
"o V l.N.N.N.N.N.N.N.N.N.N.N.N.N.N.N.N.N.N.N.N.N.N.N.N.N.N.N.N.N.N.- - - - - f.N.c = = 0 k N.N.N.N.N.N.N.N.N.N.N.N.N.N.N.N.N.N.N.N.N.N.N.N.N.N.N.N.N.N.N.N.l.V o ",
"o V l.N.N.N.N.N.N.N.N.N.N.N.N.N.N.N.N.N.N.N.N.N.N.N.N.N.N.N.N.N.N.- - - - - f.N.c = = 0 l N.N.N.N.N.N.N.N.N.N.N.N.N.N.N.N.N.N.N.N.N.N.N.N.N.N.N.N.N.N.N.N.l.V o ",
"o V l.N.N.N.N.N.N.N.N.N.N.N.N.N.N.N.N.N.N.N.N.N.N.N.N.N.N.N.N.N.N.% - - - - f.N.c - = 0 l N.N.N.N.N.N.N.N.N.N.N.N.N.N.N.N.N.N.N.N.N.N.N.N.N.N.N.N.N.N.N.N.l.V o ",
"o V l.N.N.N.N.N.N.N.N.N.N.N.N.N.N.N.N.N.N.N.N.N.N.N.N.N.N.N.N.N.N.- - - - - f.N.c = = 0 l N.N.N.N.N.N.N.N.N.N.N.N.N.N.N.N.N.N.N.N.N.N.N.N.N.N.N.N.N.N.N.N.l.V o ",
"o V l.N.N.N.N.N.N.N.N.N.N.N.N.N.N.N.N.N.N.N.N.N.N.N.N.N.N.N.N.N.N.- - - - - f.N.c - = 0 l N.N.N.N.N.N.N.N.N.N.N.N.N.N.N.N.N.N.N.N.N.N.N.N.N.N.N.N.N.N.N.N.l.V o ",
"o V l.N.N.N.N.N.N.N.N.N.N.N.N.N.N.N.N.N.N.N.N.N.N.N.N.N.N.N.N.N.N.- - - - - f.N.c = = 0 l N.N.N.N.N.N.N.N.N.N.N.N.N.N.N.N.N.N.N.N.N.N.N.N.N.N.N.N.N.N.N.N.l.V o ",
"o V l.N.N.N.N.N.N.N.N.N.N.N.N.N.N.N.N.N.N.N.N.N.N.N.N.N.N.N.N.N.N.- - - - - f.N.c - i 8 l N.N.N.N.N.N.N.N.N.N.N.N.N.N.N.N.N.N.N.N.N.N.N.N.N.N.N.N.N.N.N.N.l.V o ",
"o V l.N.N.N.N.N.N.N.N.N.N.N.N.N.N.N.N.N.N.N.N.N.N.N.N.N.N.N.N.N.N.- - - - - f.N.c = = % i N.N.N.N.N.N.N.N.N.N.N.N.N.N.N.N.N.N.N.N.N.N.N.N.N.N.N.N.N.N.N.N.l.V o ",
"o V l.N.N.N.N.N.N.N.N.N.N.N.N.N.N.N.N.N.N.N.N.N.N.N.N.N.N.N.N.N.N.- - - - - f.N.c = 0 0 k N.N.N.N.N.N.N.N.N.N.N.N.N.N.N.N.N.N.N.N.N.N.N.N.N.N.N.N.N.N.N.N.l.V o ",
"o V l.N.N.N.N.N.N.N.N.N.N.N.N.N.N.N.N.N.N.N.N.N.N.N.N.N.N.N.N.N.N.- - - - - f.N.v - - i @ N.N.N.N.N.N.N.N.N.N.N.N.N.N.N.N.N.N.N.N.N.N.N.N.N.N.N.N.N.N.N.N.l.V o ",
"o V l.N.N.N.N.N.N.N.N.N.N.N.N.N.N.N.N.N.N.N.N.N.N.N.N.N.N.N.N.N.M.D D D D D j.N.A G F F n n.N.N.N.N.N.N.N.N.N.N.N.N.N.N.N.N.N.N.N.N.N.N.N.N.N.N.N.N.N.N.N.l.V o ",
"o V l.N.N.N.N.N.N.N.N.N.N.N.N.N.N.N.N.N.N.N.N.N.N.N.N.N.N.N.N.| ' P P P P P z.N.] L P Q W ` s.N.N.N.N.N.N.N.N.N.N.N.N.N.N.N.N.N.N.N.N.N.N.N.N.N.N.N.N.N.N.l.V o ",
"o V l.N.N.N.N.N.N.N.N.N.N.N.N.N.N.N.N.N.N.N.N.N.N.N.N.N.N.N.[ ) ) _ _ _ _ _ z.N. .) _ _ P ` ' [ N.N.N.N.N.N.N.N.N.N.N.N.N.N.N.N.N.N.N.N.N.N.N.N.N.N.N.N.N.l.V o ",
"o V l.N.N.N.N.N.N.N.N.N.N.N.N.N.N.N.N.N.N.N.N.N.N.N.N.N.N.N.N.N.N.N.N.N.N.N.N.N.N.N.N.N.N.N.N.N.N.N.N.N.N.N.N.N.N.N.N.N.N.N.N.N.N.N.N.N.N.N.N.N.N.N.N.N.N.l.V o ",
"o V l.N.N.N.N.N.N.N.N.N.N.N.N.N.N.N.N.N.N.N.N.N.N.N.N.N.N.N.N.N.N.N.N.N.N.N.N.N.N.N.N.N.N.N.N.N.N.N.N.N.N.N.N.N.N.N.N.N.N.N.N.N.N.N.N.N.N.N.N.N.N.N.N.N.N.l.V o ",
"o V l.N.N.N.N.N.N.N.N.N.N.N.N.N.N.N.N.N.N.N.N.N.N.N.N.N.N.N.N.N.N.N.N.N.N.N.N.N.N.N.N.N.N.N.N.N.N.N.N.N.N.N.N.N.N.N.N.N.N.N.N.N.N.N.N.N.N.N.N.N.N.N.N.N.N.l.V o ",
"o V l.N.N.N.N.N.N.N.N.N.N.N.N.N.N.N.N.N.N.N.N.N.N.N.N.N.N.N.N.N.N.N.N.N.N.N.N.N.N.N.N.N.N.N.N.N.N.N.N.N.N.N.N.N.N.N.N.N.N.N.N.N.N.N.N.N.N.N.N.N.N.N.N.N.N.l.V o ",
"o V l.l.l.l.l.l.l.l.l.l.l.l.l.l.l.l.l.l.l.l.l.l.l.l.l.l.l.l.l.l.l.l.l.l.l.l.l.l.l.l.l.l.l.l.l.l.l.l.l.l.l.l.l.l.l.l.l.l.l.l.l.l.l.l.l.l.l.l.l.l.l.l.l.l.l.l.V o ",
"o V V V V V V V V V V V V V V V V V V V V V V V V V V V V V V V V V V V V V V V V V V V V V V V V V V V V V V V V V V V V V V V V V V V V V V V V V V V V V V o ",
"o o o o o o o o o o o o o o o o o o o o o o o o o o o o o o o o o o o o o o o o o o o o o o o o o o o o o o o o o o o o o o o o o o o o o o o o o o o o o o o o "
};
