/* XPM */
static char *_5f3b249845f4957f84dc09634ce2179qLpWtb6zLrDGw4eS[] = {
/* columns rows colors chars-per-pixel */
"80 80 7 1 ",
"  c #ED1C24",
". c #FF7E00",
"X c #22B14C",
"o c #FFF200",
"O c #2F3699",
"+ c #6F3198",
"@ c gray69",
/* pixels */
"                                                                                ",
"                                                                                ",
"                                                                                ",
"                                                                                ",
"                                                                                ",
"                                                                                ",
"      ....................................................................      ",
"      ....................................................................      ",
"      ....................................................................      ",
"      ....................................................................      ",
"      ....................................................................      ",
"      ....................................................................      ",
"      ......oooooooooooooooooooooooooooooooooooooooooooooooooooooooo......      ",
"      ......oooooooooooooooooooooooooooooooooooooooooooooooooooooooo......      ",
"      ......oooooooooooooooooooooooooooooooooooooooooooooooooooooooo......      ",
"      ......oooooooooooooooooooooooooooooooooooooooooooooooooooooooo......      ",
"      ......oooooooooooooooooooooooooooooooooooooooooooooooooooooooo......      ",
"      ......oooooooooooooooooooooooooooooooooooooooooooooooooooooooo......      ",
"      ......ooooooXXXXXXXXXXXXXXXXXXXXXXXXXXXXXXXXXXXXXXXXXXXXoooooo......      ",
"      ......ooooooXXXXXXXXXXXXXXXXXXXXXXXXXXXXXXXXXXXXXXXXXXXXoooooo......      ",
"      ......ooooooXXXXXXXXXXXXXXXXXXXXXXXXXXXXXXXXXXXXXXXXXXXXoooooo......      ",
"      ......ooooooXXXXXXXXXXXXXXXXXXXXXXXXXXXXXXXXXXXXXXXXXXXXoooooo......      ",
"      ......ooooooXXXXXXXXXXXXXXXXXXXXXXXXXXXXXXXXXXXXXXXXXXXXoooooo......      ",
"      ......ooooooXXXXXXXXXXXXXXXXXXXXXXXXXXXXXXXXXXXXXXXXXXXXoooooo......      ",
"      ......ooooooXXXXXXOOOOOOOOOOOOOOOOOOOOOOOOOOOOOOOOXXXXXXoooooo......      ",
"      ......ooooooXXXXXXOOOOOOOOOOOOOOOOOOOOOOOOOOOOOOOOXXXXXXoooooo......      ",
"      ......ooooooXXXXXXOOOOOOOOOOOOOOOOOOOOOOOOOOOOOOOOXXXXXXoooooo......      ",
"      ......ooooooXXXXXXOOOOOOOOOOOOOOOOOOOOOOOOOOOOOOOOXXXXXXoooooo......      ",
"      ......ooooooXXXXXXOOOOOOOOOOOOOOOOOOOOOOOOOOOOOOOOXXXXXXoooooo......      ",
"      ......ooooooXXXXXXOOOOOOOOOOOOOOOOOOOOOOOOOOOOOOOOXXXXXXoooooo......      ",
"      ......ooooooXXXXXXOOOOOO++++++++++++++++++++OOOOOOXXXXXXoooooo......      ",
"      ......ooooooXXXXXXOOOOOO++++++++++++++++++++OOOOOOXXXXXXoooooo......      ",
"      ......ooooooXXXXXXOOOOOO++++++++++++++++++++OOOOOOXXXXXXoooooo......      ",
"      ......ooooooXXXXXXOOOOOO++++++++++++++++++++OOOOOOXXXXXXoooooo......      ",
"      ......ooooooXXXXXXOOOOOO++++++++++++++++++++OOOOOOXXXXXXoooooo......      ",
"      ......ooooooXXXXXXOOOOOO++++++++++++++++++++OOOOOOXXXXXXoooooo......      ",
"      ......ooooooXXXXXXOOOOOO++++++@@@@@@@@++++++OOOOOOXXXXXXoooooo......      ",
"      ......ooooooXXXXXXOOOOOO++++++@@@@@@@@++++++OOOOOOXXXXXXoooooo......      ",
"      ......ooooooXXXXXXOOOOOO++++++@@@@@@@@++++++OOOOOOXXXXXXoooooo......      ",
"      ......ooooooXXXXXXOOOOOO++++++@@@@@@@@++++++OOOOOOXXXXXXoooooo......      ",
"      ......ooooooXXXXXXOOOOOO++++++@@@@@@@@++++++OOOOOOXXXXXXoooooo......      ",
"      ......ooooooXXXXXXOOOOOO++++++@@@@@@@@++++++OOOOOOXXXXXXoooooo......      ",
"      ......ooooooXXXXXXOOOOOO++++++@@@@@@@@++++++OOOOOOXXXXXXoooooo......      ",
"      ......ooooooXXXXXXOOOOOO++++++@@@@@@@@++++++OOOOOOXXXXXXoooooo......      ",
"      ......ooooooXXXXXXOOOOOO++++++++++++++++++++OOOOOOXXXXXXoooooo......      ",
"      ......ooooooXXXXXXOOOOOO++++++++++++++++++++OOOOOOXXXXXXoooooo......      ",
"      ......ooooooXXXXXXOOOOOO++++++++++++++++++++OOOOOOXXXXXXoooooo......      ",
"      ......ooooooXXXXXXOOOOOO++++++++++++++++++++OOOOOOXXXXXXoooooo......      ",
"      ......ooooooXXXXXXOOOOOO++++++++++++++++++++OOOOOOXXXXXXoooooo......      ",
"      ......ooooooXXXXXXOOOOOO++++++++++++++++++++OOOOOOXXXXXXoooooo......      ",
"      ......ooooooXXXXXXOOOOOOOOOOOOOOOOOOOOOOOOOOOOOOOOXXXXXXoooooo......      ",
"      ......ooooooXXXXXXOOOOOOOOOOOOOOOOOOOOOOOOOOOOOOOOXXXXXXoooooo......      ",
"      ......ooooooXXXXXXOOOOOOOOOOOOOOOOOOOOOOOOOOOOOOOOXXXXXXoooooo......      ",
"      ......ooooooXXXXXXOOOOOOOOOOOOOOOOOOOOOOOOOOOOOOOOXXXXXXoooooo......      ",
"      ......ooooooXXXXXXOOOOOOOOOOOOOOOOOOOOOOOOOOOOOOOOXXXXXXoooooo......      ",
"      ......ooooooXXXXXXOOOOOOOOOOOOOOOOOOOOOOOOOOOOOOOOXXXXXXoooooo......      ",
"      ......ooooooXXXXXXXXXXXXXXXXXXXXXXXXXXXXXXXXXXXXXXXXXXXXoooooo......      ",
"      ......ooooooXXXXXXXXXXXXXXXXXXXXXXXXXXXXXXXXXXXXXXXXXXXXoooooo......      ",
"      ......ooooooXXXXXXXXXXXXXXXXXXXXXXXXXXXXXXXXXXXXXXXXXXXXoooooo......      ",
"      ......ooooooXXXXXXXXXXXXXXXXXXXXXXXXXXXXXXXXXXXXXXXXXXXXoooooo......      ",
"      ......ooooooXXXXXXXXXXXXXXXXXXXXXXXXXXXXXXXXXXXXXXXXXXXXoooooo......      ",
"      ......ooooooXXXXXXXXXXXXXXXXXXXXXXXXXXXXXXXXXXXXXXXXXXXXoooooo......      ",
"      ......oooooooooooooooooooooooooooooooooooooooooooooooooooooooo......      ",
"      ......oooooooooooooooooooooooooooooooooooooooooooooooooooooooo......      ",
"      ......oooooooooooooooooooooooooooooooooooooooooooooooooooooooo......      ",
"      ......oooooooooooooooooooooooooooooooooooooooooooooooooooooooo......      ",
"      ......oooooooooooooooooooooooooooooooooooooooooooooooooooooooo......      ",
"      ......oooooooooooooooooooooooooooooooooooooooooooooooooooooooo......      ",
"      ....................................................................      ",
"      ....................................................................      ",
"      ....................................................................      ",
"      ....................................................................      ",
"      ....................................................................      ",
"      ....................................................................      ",
"                                                                                ",
"                                                                                ",
"                                                                                ",
"                                                                                ",
"                                                                                ",
"                                                                                "
};
